<?xml version="1.0" standalone="no"?>
<!DOCTYPE svg PUBLIC "-//W3C//DTD SVG 20010904//EN"
 "http://www.w3.org/TR/2001/REC-SVG-20010904/DTD/svg10.dtd">
<svg version="1.0" xmlns="http://www.w3.org/2000/svg"
 width="120.000000pt" height="120.000000pt" viewBox="0 0 120.000000 120.000000"
 preserveAspectRatio="xMidYMid meet">

<g transform="translate(0.000000,120.000000) scale(0.100000,-0.100000)"
fill="#000000" stroke="none">
<path d="M523 1164 c-43 -10 -47 -28 -51 -198 -2 -101 1 -167 8 -176 22 -32
30 15 28 167 -2 112 1 156 10 165 10 10 72 13 245 13 128 0 265 -2 304 -4 86
-5 82 2 93 -150 10 -143 7 -897 -3 -908 -13 -13 -595 -9 -608 4 -7 7 -12 71
-14 162 -2 151 -7 179 -26 151 -14 -21 -7 -299 8 -326 17 -30 59 -33 379 -31
212 2 275 5 287 16 15 12 17 59 13 510 -3 472 -8 567 -34 593 -10 10 -597 21
-639 12z"/>
<path d="M640 841 c0 -20 78 -72 247 -163 46 -25 80 -47 77 -51 -3 -3 -144 -6
-312 -7 -455 -3 -642 -7 -649 -13 -24 -25 31 -27 510 -21 l502 5 -35 -22
c-160 -104 -202 -134 -253 -181 -43 -39 -55 -57 -48 -67 7 -11 23 -2 77 48 37
34 115 91 173 128 118 73 141 91 141 108 0 6 -57 42 -127 80 -71 37 -165 92
-210 121 -44 30 -84 54 -87 54 -3 0 -6 -9 -6 -19z"/>
</g>
</svg>
