<?xml version="1.0" standalone="no"?>
<!DOCTYPE svg PUBLIC "-//W3C//DTD SVG 20010904//EN"
 "http://www.w3.org/TR/2001/REC-SVG-20010904/DTD/svg10.dtd">
<svg version="1.0" xmlns="http://www.w3.org/2000/svg"
 width="120.000000pt" height="120.000000pt" viewBox="0 0 120.000000 120.000000"
 preserveAspectRatio="xMidYMid meet">

<g transform="translate(0.000000,120.000000) scale(0.100000,-0.100000)"
fill="#000000" stroke="none">
<path d="M864 1024 c-78 -52 -139 -124 -104 -124 5 0 39 27 76 60 55 50 72 60
103 60 48 0 97 -31 118 -75 17 -35 15 -55 -13 -152 -9 -32 19 -30 34 2 7 16
32 34 67 49 46 21 55 29 55 50 0 22 -7 27 -53 41 -39 11 -57 23 -70 44 -42 72
-142 93 -213 45z m280 -120 c24 -9 19 -21 -14 -33 -28 -9 -30 -8 -30 15 0 24
13 30 44 18z"/>
<path d="M958 918 c-8 -21 2 -38 22 -38 19 0 30 17 23 38 -3 6 -13 12 -23 12
-10 0 -20 -6 -22 -12z"/>
<path d="M683 857 c-51 -43 -227 -172 -284 -210 -60 -39 -71 -53 -62 -85 5
-20 -13 -27 -221 -78 -86 -21 -106 -40 -106 -97 0 -52 22 -87 56 -87 14 0 79
20 145 45 66 25 129 45 139 45 10 0 49 -10 86 -21 38 -12 91 -24 118 -28 48
-6 49 -7 82 -71 l34 -64 -30 -24 c-16 -13 -30 -30 -30 -38 0 -19 6 -18 40 8
l29 21 61 -20 c33 -11 63 -16 66 -11 10 15 -15 36 -54 44 l-37 8 55 6 c40 4
55 9 55 20 0 12 -13 15 -65 12 l-66 -2 -26 54 -27 54 32 6 c67 13 159 66 221
129 64 64 101 120 91 137 -11 18 -23 10 -54 -39 -42 -65 -116 -133 -182 -167
-80 -40 -160 -43 -281 -10 -52 14 -109 26 -126 26 -17 0 -83 -21 -148 -46 -85
-33 -123 -44 -134 -37 -19 12 -25 69 -10 88 6 8 71 28 143 45 73 17 142 38
154 46 20 13 26 12 57 -10 91 -62 287 -27 371 65 62 69 123 225 97 251 -17 17
-29 1 -36 -48 -14 -103 -78 -199 -154 -232 -112 -48 -219 -45 -282 9 -34 30
-35 31 -15 45 11 9 92 67 180 131 88 63 161 121 163 128 6 24 -16 25 -45 2z"/>
<path d="M1046 718 c-3 -7 -7 -25 -10 -40 -3 -16 -9 -40 -12 -54 -5 -20 -3
-25 7 -22 20 7 39 48 39 85 0 33 -17 55 -24 31z"/>
</g>
</svg>
